<svg width="429" height="466" viewBox="0 0 429 466" fill="none" xmlns="http://www.w3.org/2000/svg">
<path d="M26.5613 356.545C30.8113 344.545 29.0157 333.901 26.5612 319.359C23.493 301.18 18.3794 260.365 44.2885 234.298C65.0157 213.445 88.6067 202.744 97.8112 200" stroke="black" stroke-width="5" stroke-linecap="round"/>
<path d="M78.8115 356.045C80.2937 350.853 94.8655 328.276 93.0128 313.045C92.3461 308.712 92.8128 298.745 102.013 293.545" stroke="black" stroke-width="5" stroke-linecap="round"/>
<path d="M70.5127 254.045C77.5127 242.545 96.5127 227.545 111.513 225.045C126.513 222.545 127.839 232.742 125.905 237.072C123.004 243.566 116.69 250.743 104.062 264.415C91.5509 277.959 84.7209 303.037 83.9246 315" stroke="black" stroke-width="5" stroke-linecap="round"/>
<path d="M318.406 213.575C308.685 205.232 284.509 190.467 265.57 198.146C263.854 198.832 260.286 202.055 259.737 209.461" stroke="black" stroke-width="5" stroke-linecap="round"/>
<path d="M298.013 285.545C279.013 264.045 268.013 247.045 270.513 225.545C271.906 213.562 278.808 208.62 285.126 214.603C293.513 222.545 300.013 232.545 309.143 236.546C310.933 237.379 316.613 239.045 325.013 239.045" stroke="black" stroke-width="5" stroke-linecap="round"/>
<path d="M367.812 333.572C366.897 329.915 364.998 318.212 366.096 308.887C367.468 297.23 366.226 253.23 347.013 240.545" stroke="black" stroke-width="5" stroke-linecap="round"/>
<path d="M365.012 217.545L246.677 209.024C246.454 209.008 246.22 209.032 246.005 209.091C228.055 214.048 235.718 223.977 242.05 229.172C242.35 229.419 242.719 229.564 243.106 229.599L270.013 232.045" stroke="black" stroke-width="5" stroke-linecap="round"/>
<path d="M364.512 241.545L324.996 238.955" stroke="black" stroke-width="5" stroke-linecap="round"/>
<ellipse cx="364.312" cy="229.5" rx="10.5" ry="14.5" fill="black"/>
<path d="M351.023 239.161C343.819 229.117 349.276 221.115 353.423 217.937C353.768 217.673 354.199 217.556 354.634 217.576L366.519 218.128C367.621 218.18 368.473 219.113 368.424 220.215L367.568 239.421C367.517 240.572 366.505 241.442 365.359 241.321L352.391 239.945C351.847 239.887 351.342 239.606 351.023 239.161Z" fill="black"/>
<path d="M227.803 215.308L233.576 213.477C234.956 213.039 236.33 214.168 236.168 215.607L235.618 220.491C235.457 221.928 233.87 222.724 232.622 221.994L227.399 218.941C225.903 218.067 226.151 215.833 227.803 215.308Z" fill="black"/>
<path d="M101.6 227.045L96.8115 94.9818C96.811 75.4909 100.437 42.4596 140.934 43.0067C181.431 43.5538 203.413 43.2347 209.341 43.0067" stroke="black" stroke-width="5" stroke-linecap="round"/>
<path d="M255.858 43.0067H323.924C342.736 43.3487 358.811 51.5553 358.811 83.0139C358.811 114.473 357.881 180.237 356.513 214.545" stroke="black" stroke-width="5" stroke-linecap="round"/>
<path d="M299.512 377.545C271.465 379.597 196.458 385.062 151.195 387C132.041 387 106.662 384.538 103.652 350.07L101.6 267.662" stroke="black" stroke-width="5" stroke-linecap="round"/>
<circle cx="232.312" cy="27.5" r="13" stroke="black" stroke-width="5"/>
<path d="M211.104 35.9631C213.558 43.0612 210.081 48.2482 202.243 49.9546C198.494 50.7706 193.246 50.8418 183.158 54.3908C170.549 58.827 168.163 71.4535 167.822 82.3736C167.549 91.1097 172.593 93.9762 181.454 94.3175C207.241 94.2037 262.474 95 277.219 95C292.555 95 294.785 89.1987 295.282 85.4449C297.735 66.8807 291.192 59.4385 285.398 56.7795C282.672 55.5283 274.697 52.4115 264.61 49.9546C254.522 47.4976 252.705 44.1531 253.704 39.3756C256.158 27.6364 254.726 18.1041 253.704 14.8054C252.568 10.2553 245.934 1.5647 228.485 3.20272C206.673 5.25025 208.037 27.0905 211.104 35.9631Z" stroke="black" stroke-width="5" stroke-linecap="round"/>
<path d="M330.513 212.045L331.812 85.5453C331.812 82.8144 330.265 78.0354 323.959 78.0354C317.472 78.0354 302.905 78.263 296.304 78.0354" stroke="black" stroke-width="5" stroke-linecap="round"/>
<path d="M166.221 78.0354H134.81C131.396 77.6941 124.84 79.674 125.933 90.3244C127.025 100.975 132.306 266.124 134.81 347.367C134.696 351.464 136.517 359.52 144.711 358.974C150.945 358.558 247.952 353.095 306.013 350.545" stroke="black" stroke-width="5" stroke-linecap="round"/>
<path d="M340.012 213.545L341.811 87.8927C341.811 84.1303 340.172 78.6577 330.885 80.0258" stroke="black" stroke-width="5" stroke-linecap="round"/>
<path d="M128.749 79C125.334 79 117.481 79 117.822 87.8927C118.15 96.4392 121.237 183.957 122.261 224.545" stroke="black" stroke-width="5" stroke-linecap="round"/>
<path d="M122.261 244.203L125.334 350.919C125.675 354.681 127.041 360.153 143.43 358.785" stroke="black" stroke-width="5" stroke-linecap="round"/>
<path d="M161.812 137H225.812" stroke="black" stroke-width="5" stroke-linecap="round"/>
<path d="M162.24 159.705L300.412 159.021" stroke="black" stroke-width="5" stroke-linecap="round"/>
<path d="M162.582 182.62L270.999 181.594" stroke="black" stroke-width="5" stroke-linecap="round"/>
<path d="M163.624 218.209L216.962 215.795" stroke="black" stroke-width="5" stroke-linecap="round"/>
<path d="M344.013 216.045C341.513 220.712 336.013 227.045 342.013 239.045" stroke="black" stroke-width="5" stroke-linecap="round"/>
<path d="M264.513 271.642C261.18 275.61 259.313 286.945 278.513 300.545C288.013 306.712 307.713 325.445 310.513 351.045" stroke="black" stroke-width="5" stroke-linecap="round"/>
<path d="M259.512 231.545C257.726 234.895 256.942 241.342 262.513 247.517C265.257 250.56 269.544 253.537 276.012 256.045" stroke="black" stroke-width="5" stroke-linecap="round"/>
<path d="M262.512 247.517C258.938 252.688 255.679 263.29 264.512 271.642C266.8 273.805 274.398 277.817 278.512 279.545" stroke="black" stroke-width="5" stroke-linecap="round"/>
<path d="M331.947 438.552C321.28 413.719 306.347 359.952 331.947 343.552C363.947 323.052 405.447 369.552 419.947 409.552" stroke="black" stroke-width="5" stroke-linecap="round"/>
<path d="M5.81152 419.045C8.31152 395.711 25.7115 348.088 55.3115 354.088C84.9115 360.088 92.9782 413.588 93.3115 439.588" stroke="black" stroke-width="5" stroke-linecap="round"/>
</svg>
