<svg width="450" height="418" viewBox="0 0 450 418" fill="none" xmlns="http://www.w3.org/2000/svg">
<path d="M60.1827 279V248.719V212.851C60.1827 204.141 61.4155 196.54 50.93 195.942C40.4444 195.344 35.4512 207.215 17.4758 203.116C7.989 200.952 9.76155e-06 191.331 0 180.058C-1.68605e-05 160.587 21.1323 148.839 41.4428 161.612C60.1827 173.397 60.1827 151.364 60.1827 144.19V97C60.1827 95.8954 61.0781 95 62.1827 95H131.085C145.066 96.0248 136.578 111.909 132.583 121.645C124.594 141.116 135.413 152.047 143.069 154.95C170.032 161.612 176.523 132.917 167.535 121.645C155.246 106.231 158.547 96.5372 164.539 96.5372H230.794C231.956 96.5372 232.877 97.5182 232.836 98.6795C232.53 107.252 232.945 127.414 232.945 147.265C232.945 173.909 256.912 165.198 256.912 165.711C256.912 166.223 292.826 156.143 295.859 184.157C297.856 202.603 278.383 214.388 256.912 207.727C239.736 202.398 236.94 208.752 236.94 214.388V279C236.94 280.105 236.044 281 234.94 281H161.169C160.471 281 159.815 280.628 159.467 280.024C150.413 264.309 159.02 257.069 164.04 244.62C170.032 229.76 163.483 217.385 153.554 214.388C140.572 210.47 117.604 217.463 127.091 244.62C134.406 265.561 134.081 281 122.098 281H62.1827C61.0781 281 60.1827 280.105 60.1827 279Z" fill="black"/>
<path d="M231.766 99H289.266C296.266 99 309.033 92.6202 304.766 67.0134C300.266 40.0117 321.736 40.2364 330.766 43.5109C335.432 45.1793 343.366 52.2156 337.766 67.0134C330.766 85.5107 335.266 100.016 349.766 100.016H399.766C400.87 100.016 401.766 100.911 401.766 102.016V276.48C401.766 277.593 400.879 278.492 399.767 278.482C390.202 278.396 349.262 278.059 341.766 278.5C333.266 279 334.741 288.275 339.766 300C347.266 317.5 339.515 338.853 314.266 334.5C299.766 332 293.766 316.5 299.766 300C305.766 283.5 298.766 278.5 292.266 278.5C279.06 278.5 248.167 278.333 235 278.5" stroke="black" stroke-width="5" stroke-linecap="round"/>
<path d="M239.5 335C242.667 340.5 249.2 352.4 250 356" stroke="black" stroke-width="5" stroke-linecap="round"/>
<path d="M227 338C225.333 342.5 224.5 355.9 234.5 373.5" stroke="black" stroke-width="5" stroke-linecap="round"/>
<path d="M208 335C201.5 341 188.2 355 187 363" stroke="black" stroke-width="5" stroke-linecap="round"/>
<path d="M229 41.5C235.5 35.5 248.8 21.5 250 13.5" stroke="black" stroke-width="5" stroke-linecap="round"/>
<path d="M210 38.5C211.667 34 212.5 20.6 202.5 3" stroke="black" stroke-width="5" stroke-linecap="round"/>
<path d="M197.5 41.5C194.333 36 187.8 24.1 187 20.5" stroke="black" stroke-width="5" stroke-linecap="round"/>
</svg>
