<svg width="450" height="426" viewBox="0 0 450 426" fill="none" xmlns="http://www.w3.org/2000/svg">
<g clip-path="url(#clip0_490_427)">
<path d="M191.105 332.535C185.89 305.614 205.228 244.126 215.549 216.747C218.99 218.375 247.78 212.767 257.015 199.379C264.403 188.669 276.95 184.462 283.09 182.554C291.238 180.021 304.819 180.382 307.353 186.534L310.069 192.866C318.942 218.375 311.216 257.152 305.724 274.46L285.444 278.078C270.088 253.184 277.959 222.838 283.814 210.777C277.585 219.172 260.094 228.024 252.126 231.401C251.764 253.655 217.722 330.364 210.298 335.249C204.359 339.156 195.028 335.068 191.105 332.535Z" fill="black"/>
<path d="M204.112 336.969L201.576 341.577L204.112 336.969ZM193.607 334.049L188.77 346.823L188.355 347.918C187.895 349.024 187.576 350.879 188.355 352.459C188.905 353.574 190 354.551 191.978 355.035C196.759 356.202 214.737 357.468 223.129 357.955C224.578 358.137 227.331 357.443 226.751 353.21C226.171 348.976 223.129 345.102 219.688 343.538C216.896 342.27 209.699 340.301 201.576 341.577L193.607 334.049ZM199.041 342.078C199.893 341.874 200.74 341.708 201.576 341.577L199.041 342.078Z" stroke="black" stroke-width="5" stroke-linecap="round"/>
<path d="M288.336 277.096C288.155 282.464 288.644 293.033 289.97 294.649C291.604 296.64 293.601 296.82 305.764 293.02C315.494 289.98 319.379 289.945 321.739 289.583C323.373 289.332 325.37 289.112 325.37 285.059C325.37 279.992 323.373 276.553 317.2 275.829C312.263 275.25 305.219 278.242 302.315 279.81V274.925" stroke="black" stroke-width="5" stroke-linecap="round"/>
<path d="M265.1 94.9565C246.452 96.841 209.808 104.784 212.415 121.478C212.815 122.896 213.963 125.158 216.104 127.285C218.166 129.334 221.148 131.259 225.27 132.185" stroke="black" stroke-width="5" stroke-linecap="round"/>
<path d="M216.104 127.285C221.935 136.358 239.029 156.065 260.754 162.308" stroke="black" stroke-width="5" stroke-linecap="round"/>
<path d="M260.614 162.308C261.942 160.524 265.432 157.299 269.53 157.146" stroke="black" stroke-width="5" stroke-linecap="round"/>
<path d="M269.529 157.146C269.408 152.051 265.11 138.912 248.883 127.115" stroke="black" stroke-width="5" stroke-linecap="round"/>
<path d="M244.19 131.338C245.875 128.611 251.048 122.823 258.268 121.484" stroke="black" stroke-width="5" stroke-linecap="round"/>
<path d="M284.545 126.176C285.327 127.101 286.891 129.615 286.891 132.276" stroke="black" stroke-width="5" stroke-linecap="round"/>
<path d="M284.362 165.128C288.06 164.948 295.782 164.405 297.092 163.682C298.729 162.778 299.092 162.778 299.092 160.97C299.092 159.162 284.362 162.236 284.362 156.449C285.696 155.123 287.854 152.146 285.817 150.843C283.78 149.542 279.512 153.315 277.633 155.364C275.693 157.414 271.341 160.644 269.449 157.172" stroke="black" stroke-width="5" stroke-linecap="round"/>
<path d="M261.083 162.236C262.72 166.997 268.612 175.543 279.087 171.638C289.562 167.732 289.998 165.671 288.907 165.128" stroke="black" stroke-width="5" stroke-linecap="round"/>
<path d="M351.3 164.262C353.845 163.566 359.409 160.329 361.3 152.948C363.191 145.568 360.633 145.532 359.118 146.436" stroke="black" stroke-width="5" stroke-linecap="round"/>
<path d="M341.845 158.919C342.633 154.818 345.409 146.907 350.209 148.064" stroke="black" stroke-width="5" stroke-linecap="round"/>
<path d="M343.845 152.225C340.499 149.475 338.45 155.783 337.844 159.28C334.062 160.438 332.632 165.913 332.39 168.506C341.141 169.404 347.361 167.054 351.3 164.262C353.711 162.552 355.267 160.677 356.027 159.28C357.906 154.275 360.645 143.831 356.572 142.094C352.499 140.358 351.36 144.265 351.3 146.436C351.736 151.357 349.178 156.808 347.845 158.918" stroke="black" stroke-width="5" stroke-linecap="round"/>
<path d="M291.114 165.069C298.993 172.426 318.279 183.413 332.389 168.506" stroke="black" stroke-width="5" stroke-linecap="round"/>
<path d="M289.707 166.062C289.707 169.477 288.862 177.262 285.483 181.077" stroke="black" stroke-width="5" stroke-linecap="round"/>
<path d="M216.037 174.039C208.601 184.076 198.19 206.761 216.037 217.209" stroke="black" stroke-width="5" stroke-linecap="round"/>
<path d="M438.456 130.869L442.679 123.83" stroke="black" stroke-width="5" stroke-linecap="round"/>
<path d="M440.521 134.548L448.31 134.186" stroke="black" stroke-width="5" stroke-linecap="round"/>
<path d="M438.925 138.846L443.617 144.946" stroke="black" stroke-width="5" stroke-linecap="round"/>
<path d="M285.539 359.861H158.789V421.797" stroke="black" stroke-width="15" stroke-linecap="round"/>
<path d="M373.667 298.106H269.945V373.624" stroke="black" stroke-width="15" stroke-linecap="round"/>
<path d="M442.21 211.539H358.072V312.412" stroke="black" stroke-width="15" stroke-linecap="round"/>
<path d="M427.341 145.65V225.665" stroke="black" stroke-width="15" stroke-linecap="round"/>
<path d="M427.341 117.73V124.534" stroke="black" stroke-width="15" stroke-linecap="round"/>
<path d="M262.98 166.782L159.103 178.731C147.087 169.105 149.995 154.733 152.95 148.751L225.157 140.096" stroke="black" stroke-width="5" stroke-linecap="round"/>
<path d="M298.631 163.898L334.282 160.472" stroke="black" stroke-width="5" stroke-linecap="round"/>
<path d="M360.341 156.685L383.686 155.061L414.994 140.871C411.23 136.875 413.294 133.315 414.862 132.042L383.686 124.769L260.265 135.046" stroke="black" stroke-width="5" stroke-linecap="round"/>
<path d="M141.765 148.9L152.347 147.761C145.008 164.203 153.42 175.388 158.79 179.74L146.44 181.547C136.117 168.975 138.778 154.905 141.765 148.9Z" fill="black"/>
<path d="M416.12 141.661C412.193 137.562 414.4 132.68 416.036 131.103L430.948 134.783L416.12 141.661Z" fill="black"/>
<path d="M384.024 124.769C380.129 129.714 374.676 142.643 384.024 154.8" stroke="black" stroke-width="5"/>
<path d="M294.313 98.1225C297.417 96.2123 320.766 98.0536 325.305 68.6834C333.077 68.7745 337.303 62.4083 331.373 59.6839C325.051 56.4241 325.526 50.4394 326.671 46.9131C328.492 42.2886 328.602 37.4334 328.209 36.4178" stroke="black" stroke-width="5" stroke-linecap="round"/>
<path d="M318.454 58.0776C319.336 58.088 320.063 57.0242 320.079 55.7014C320.094 54.3786 319.392 53.2975 318.51 53.2872C317.628 53.2769 316.901 54.3411 316.885 55.6639C316.87 56.9867 317.572 58.0673 318.454 58.0776Z" fill="black"/>
<path d="M314.119 48.3837C315.416 46.9975 318.769 44.97 321.807 47.9482" stroke="black" stroke-width="5" stroke-linecap="round"/>
<path d="M305.311 75.3719C307.694 79.0391 310.31 80.0803 315.392 77.7139" stroke="black" stroke-width="5" stroke-linecap="round"/>
<path d="M285.803 49.6689C285.25 50.8815 284.788 53.634 287.354 54.9441" stroke="black" stroke-width="5" stroke-linecap="round"/>
<path d="M258.449 37.2177C255.425 53.7607 264.886 66.2138 271.745 75.7872C279.07 71.8297 291.076 62.4186 286.471 61.4027C281.631 60.3352 276.527 47.1341 281.227 43.0958C286.741 38.3579 291.712 45.5266 292.659 50.9621L297.1 43.2817C295.844 37.9097 295.352 28.4862 303.429 33.769C311.506 39.0518 323.354 37.668 328.268 36.3157C337.958 29.3801 353.012 13.2024 335.712 3.97679C321.323 -3.69641 302.599 6.00456 291.169 14.7214C283.43 12.6784 262.571 14.6617 258.449 37.2177Z" fill="black"/>
<path d="M272.283 74.6793C275.781 78.8903 277.519 82.387 277.302 89.6307" stroke="black" stroke-width="5" stroke-linecap="round"/>
<path d="M268.391 99.3285C267.166 95.0565 266.449 86.9087 273.375 88.4923C282.033 90.4716 299.681 99.0333 298.388 103.779" stroke="black" stroke-width="5" stroke-linecap="round"/>
<path d="M298.388 110.457C304.722 116.322 306.13 120.076 307.069 127.115" stroke="black" stroke-width="5" stroke-linecap="round"/>
<path d="M1.59473 300.711C10.1999 299.928 30.4769 305.059 44.022 331.449C44.3763 332.139 45.3753 332.158 45.7282 331.467C59.622 304.268 76.6741 276.677 130.573 309.898C131.401 310.408 132.489 309.483 132.078 308.601C123.333 289.793 118.608 253.926 159.357 236.132C160.174 235.775 160.138 234.56 159.282 234.31L148.742 231.229C147.776 230.947 147.881 229.621 148.883 229.53C159.742 228.552 175.06 229.19 169.786 235.596C163.629 243.076 162.115 247.805 163.616 255.615" stroke="black" stroke-width="5" stroke-linecap="round"/>
</g>
<defs>
<clipPath id="clip0_490_427">
<rect width="450" height="425.6" fill="white"/>
</clipPath>
</defs>
</svg>
