<svg width="538" height="509" viewBox="0 0 538 509" fill="none" xmlns="http://www.w3.org/2000/svg">
<path d="M253.5 462.5C260.667 464.167 281 465.3 285 452.5" stroke="black" stroke-width="5" stroke-linecap="round"/>
<path d="M264 434.5C276 446 295 464.5 305 449.5L311 439.5" stroke="black" stroke-width="5" stroke-linecap="round"/>
<path d="M264 403.5C277.667 416.5 319.6 447.7 338 436.5C341.333 434.333 348.1 427.4 348.5 417" stroke="black" stroke-width="5" stroke-linecap="round"/>
<path d="M297 386C313.833 399.167 351 422.7 365 411.5C379 400.3 364.5 384.833 355.5 378.5L295 329.5" stroke="black" stroke-width="5" stroke-linecap="round"/>
<path d="M123 338.5C130.5 342.439 138.775 352.657 141.5 362C145 374 154.833 384.333 159 387.5" stroke="black" stroke-width="5" stroke-linecap="round"/>
<path d="M273 271.5C263 267.5 235 259.4 213 263C191 266.6 193 259.5 182.5 253.5L123 217" stroke="black" stroke-width="5" stroke-linecap="round"/>
<path d="M353 268.5L375 257M372.5 398C381.7 395.6 397 382 403.5 375.5L429 362" stroke="black" stroke-width="5" stroke-linecap="round"/>
<path d="M355 322C340.333 330.833 303.6 341.7 274 318.5" stroke="black" stroke-width="5" stroke-linecap="round"/>
<path d="M274 318.5C263 334 237.2 363.6 222 358C206.8 352.4 213.667 336 219 328.5C234.5 297.5 283 242.1 353 268.5" stroke="black" stroke-width="5" stroke-linecap="round"/>
<path d="M254.5 444.5C254.1 459.3 249.333 465.667 247 467C235.625 473.5 223 463.5 226.523 455.372C228.942 450.87 232.182 441.581 233.5 437.5C236.568 428 254.9 429.7 254.5 444.5Z" stroke="black" stroke-width="5" stroke-linecap="round"/>
<path d="M213 458.5C196.2 462.1 196 445 203.5 436.5C205.904 433.776 211.9 428.179 219.5 422C227.1 415.821 232 421.092 233.5 424.5C235.481 429 229.8 454.9 213 458.5Z" stroke="black" stroke-width="5" stroke-linecap="round"/>
<path d="M185 438.5C166.6 438.1 167.5 422 175 415C180.833 408.833 195.7 397.4 208.5 401C221.3 404.6 218.5 416.5 215.5 422.5C213 428 203.4 438.9 185 438.5Z" stroke="black" stroke-width="5" stroke-linecap="round"/>
<path d="M191 383C171.4 378.2 154.834 390 149 396.5C145 401.7 145.334 407.667 146 410C150.8 422 173 413.333 183.5 407.5C194.167 401.333 210.6 387.8 191 383Z" stroke="black" stroke-width="5" stroke-linecap="round"/>
<path d="M218 203C221 209.667 226.1 226.1 222.5 238.5" stroke="black" stroke-width="5" stroke-linecap="round"/>
<path d="M236.5 215.5C237.333 219.167 239 228 239 234" stroke="black" stroke-width="5" stroke-linecap="round"/>
<path d="M299 180L310.5 220.5" stroke="black" stroke-width="5" stroke-linecap="round"/>
<path d="M331.5 198L328 222" stroke="black" stroke-width="5" stroke-linecap="round"/>
<path d="M362.5 215.5L345 229" stroke="black" stroke-width="5" stroke-linecap="round"/>
<circle cx="16.5" cy="259.5" r="15.5" fill="black"/>
<path d="M41.9745 260.824C68.1959 258.125 109.34 261.317 114.203 281.6C119.066 301.883 100.496 309.301 90.6036 310.475C52.9401 316.461 3 313.644 3 281.6" stroke="black" stroke-width="5" stroke-linecap="round"/>
<circle cx="32.5" cy="288.5" r="4" stroke="black" stroke-width="3"/>
<path d="M62.5 288.5C62.5 290.589 60.6108 292.5 58 292.5C55.3892 292.5 53.5 290.589 53.5 288.5C53.5 286.411 55.3892 284.5 58 284.5C60.6108 284.5 62.5 286.411 62.5 288.5Z" stroke="black" stroke-width="3"/>
<circle cx="83.5" cy="288.5" r="4" stroke="black" stroke-width="3"/>
<circle cx="451.5" cy="446.5" r="14.5" fill="black"/>
<path d="M475.076 436C483.869 436 508.996 436 520.815 436C530.389 436 534.998 438.118 534.998 452.942C534.998 467.345 534.88 486.002 534.998 493.532C535.081 498.826 532.445 504.685 523.652 505.532C514.858 506.379 479.566 505.885 463.02 505.532C456.874 505.532 446 502.048 446 487.884L446 472.001" stroke="black" stroke-width="5" stroke-linecap="round"/>
<path d="M469 461L491 476" stroke="black" stroke-width="5" stroke-linecap="round"/>
<path d="M491 476L531 439" stroke="black" stroke-width="5" stroke-linecap="round"/>
<path d="M461 489L477.127 467M501.139 467L523 489" stroke="black" stroke-width="5" stroke-linecap="round"/>
<path d="M458.754 202.045L406.754 241.545C340.754 292.045 405.253 348.712 429.253 361.545L505.754 312.545" stroke="black" stroke-width="5" stroke-linecap="round"/>
<path d="M237.398 74.2422C244.898 73.2422 260.998 67.5422 265.398 52.7422" stroke="black" stroke-width="5" stroke-linecap="round"/>
<path d="M212.898 62.2422C217.898 62.4089 229.398 59.9422 235.398 48.7422" stroke="black" stroke-width="5" stroke-linecap="round"/>
<path d="M190.398 44.2422C198.398 42.5807 215.798 37.4062 221.398 30" stroke="black" stroke-width="5" stroke-linecap="round"/>
<path d="M262.746 99.3883C212.467 110.61 165.592 60.5584 146.992 32.125C146.283 31.0413 146.811 29.6035 148.039 29.1917L227.187 2.64833C227.926 2.40067 228.737 2.60316 229.281 3.1603C255.636 30.1354 304.601 42.0222 330.409 45.2679C332.234 45.4973 332.875 47.8701 331.395 48.9618L263.489 99.049C263.269 99.2117 263.013 99.3286 262.746 99.3883Z" stroke="black" stroke-width="5" stroke-linecap="round"/>
</svg>
