<svg width="450" height="330" viewBox="0 0 450 330" fill="none" xmlns="http://www.w3.org/2000/svg">
<g clip-path="url(#clip0_489_258)">
<path d="M344.144 307.019C330.511 295.911 348.982 294.606 359.922 295.343V302.601L386.114 309.228C377.804 313.12 357.776 318.127 344.144 307.019Z" fill="black"/>
<path d="M415.778 300.392C406.942 301.401 404.312 297.446 404.102 295.343H423.036C424.298 296.605 424.613 299.382 415.778 300.392Z" fill="black"/>
<path d="M395.897 269.782C386.114 269.782 380.75 269.15 372.86 268.519" stroke="black" stroke-width="5" stroke-linecap="round"/>
<path d="M403.47 273.568V303.863" stroke="black" stroke-width="5" stroke-linecap="round"/>
<path d="M380.749 275.146L359.922 273.568" stroke="black" stroke-width="5" stroke-linecap="round"/>
<path d="M390.531 278.302V308.912" stroke="black" stroke-width="5" stroke-linecap="round"/>
<path d="M390.216 309.543L403.47 304.178" stroke="black" stroke-width="5" stroke-linecap="round"/>
<path d="M372.545 268.519L359.922 273.568" stroke="black" stroke-width="5" stroke-linecap="round"/>
<path d="M359.606 273.884V302.916" stroke="black" stroke-width="5" stroke-linecap="round"/>
<path d="M359.29 302.601L390.216 309.543" stroke="black" stroke-width="5" stroke-linecap="round"/>
<path d="M395.896 270.413V261.577" stroke="black" stroke-width="5" stroke-linecap="round"/>
<path d="M423.351 295.027V264.417" stroke="black" stroke-width="5" stroke-linecap="round"/>
<path d="M438.183 254.319V288.4" stroke="black" stroke-width="5" stroke-linecap="round"/>
<path d="M423.351 295.658L438.182 288.4" stroke="black" stroke-width="5" stroke-linecap="round"/>
<path d="M438.183 254.003L404.732 252.741" stroke="black" stroke-width="5" stroke-linecap="round"/>
<path d="M395.896 261.577L404.732 252.741" stroke="black" stroke-width="5" stroke-linecap="round"/>
<path d="M423.351 264.101L437.867 254.634" stroke="black" stroke-width="5" stroke-linecap="round"/>
<path d="M423.351 295.027H404.732" stroke="black" stroke-width="5" stroke-linecap="round"/>
<path d="M396.212 261.577L414.199 262.208" stroke="black" stroke-width="5" stroke-linecap="round"/>
<path d="M144.052 320.301C144.368 311.466 179.711 314.306 181.92 314.621V320.301L192.65 327.875C176.345 328.296 143.8 327.37 144.052 320.301Z" fill="black"/>
<path d="M231.779 319.355V287.167" stroke="black" stroke-width="5" stroke-linecap="round"/>
<path d="M204.325 327.56V292.216" stroke="black" stroke-width="5" stroke-linecap="round"/>
<path d="M181.604 319.355V284.011" stroke="black" stroke-width="5" stroke-linecap="round"/>
<path d="M181.604 284.011L206.534 277.7" stroke="black" stroke-width="5" stroke-linecap="round"/>
<path d="M231.78 286.851L204.325 291.9" stroke="black" stroke-width="5" stroke-linecap="round"/>
<path d="M204.325 327.875L231.78 319.67" stroke="black" stroke-width="5" stroke-linecap="round"/>
<path d="M231.78 286.851L206.534 277.7" stroke="black" stroke-width="5" stroke-linecap="round"/>
<path d="M181.604 284.327L204.641 291.9" stroke="black" stroke-width="5" stroke-linecap="round"/>
<path d="M262.544 318.724C256.738 308.625 275.272 307.152 285.265 307.679V314.937L317.769 318.724C301.78 322.931 268.351 328.822 262.544 318.724Z" fill="black"/>
<path d="M333.862 305.154L321.555 317.777" stroke="black" stroke-width="5" stroke-linecap="round"/>
<path d="M318.715 279.278L286.843 277.069" stroke="black" stroke-width="5" stroke-linecap="round"/>
<path d="M299.78 268.864L333.862 270.442" stroke="black" stroke-width="5" stroke-linecap="round"/>
<path d="M286.212 277.069L284.634 313.674" stroke="black" stroke-width="5" stroke-linecap="round"/>
<path d="M333.862 271.073V304.523" stroke="black" stroke-width="5" stroke-linecap="round"/>
<path d="M321.555 290.954V317.777" stroke="black" stroke-width="5" stroke-linecap="round"/>
<path d="M286.211 277.069L299.78 268.864" stroke="black" stroke-width="5" stroke-linecap="round"/>
<path d="M321.554 317.777L284.317 313.99" stroke="black" stroke-width="5" stroke-linecap="round"/>
<path d="M255.964 82.2144C257.332 81.7934 260.95 81.3939 264.484 83.1611" stroke="black" stroke-width="5" stroke-linecap="round"/>
<path d="M243.342 98.6238C245.782 98.6238 247.76 96.5044 247.76 93.8903C247.76 91.2761 245.782 89.1567 243.342 89.1567C240.902 89.1567 238.924 91.2761 238.924 93.8903C238.924 96.5044 240.902 98.6238 243.342 98.6238Z" fill="black"/>
<path d="M279.316 104.935C281.756 104.935 283.734 102.816 283.734 100.202C283.734 97.5876 281.756 95.4683 279.316 95.4683C276.876 95.4683 274.898 97.5876 274.898 100.202C274.898 102.816 276.876 104.935 279.316 104.935Z" fill="black"/>
<path d="M232.612 86.3168C232.928 84.3179 234.884 80.5103 240.186 81.2677" stroke="black" stroke-width="5" stroke-linecap="round"/>
<path d="M273.005 85.6856C275.529 83.4766 281.841 80.384 286.89 85.6856" stroke="black" stroke-width="5" stroke-linecap="round"/>
<path d="M259.435 91.0503C262.381 95.8892 266.504 106.261 259.435 109.038L255.964 110.3" stroke="black" stroke-width="5" stroke-linecap="round"/>
<path d="M247.444 120.083C248.181 122.081 250.979 125.384 256.28 122.607" stroke="black" stroke-width="5" stroke-linecap="round"/>
<path d="M145.83 73.694C135.479 107.775 164.238 132.495 179.911 140.594C194.049 132.011 214.203 127.656 222.828 126.394C212.099 117.558 208.838 101.359 207.997 93.8903C202.317 95.7837 187.169 88.5257 194.112 73.694C199.666 61.8286 205.682 67.9083 207.997 72.4317L223.46 79.3742C223.46 64.9843 233.347 60.1245 238.291 59.4934C241.321 57.4738 244.603 50.8677 245.865 47.8174C247.38 59.6827 262.906 68.3293 270.479 71.1694C280.325 63.3433 288.256 67.9083 290.991 71.1694L297.934 70.2227C311.503 65.5946 335.865 49.7739 324.757 23.5186C313.649 -2.73663 290.676 2.06 280.577 7.74024C245.991 -15.2331 211.257 18.3642 198.214 38.0348C185.065 35.7204 156.181 39.6126 145.83 73.694Z" fill="black"/>
<path d="M223.145 79.6897L207.998 71.8005" stroke="black" stroke-width="5" stroke-linecap="round"/>
<path d="M255.649 79.0587C255.649 89.9427 248.21 98.3084 239.555 98.3084C230.9 98.3084 223.461 89.9427 223.461 79.0587C223.461 68.1742 230.9 59.8091 239.555 59.8091C248.21 59.8091 255.649 68.1742 255.649 79.0587Z" stroke="black" stroke-width="5"/>
<path d="M297.304 86.0011C297.304 96.885 289.866 105.251 281.21 105.251C272.555 105.251 265.116 96.885 265.116 86.0011C265.116 75.1165 272.555 66.7515 281.21 66.7515C289.866 66.7515 297.304 75.1165 297.304 86.0011Z" stroke="black" stroke-width="5"/>
<path d="M297.935 146.833C322.171 127.394 308.349 101.181 298.251 90.3464C292.697 116.602 279.843 127.899 274.268 130.424L283.103 135.157L297.935 146.833Z" fill="black"/>
<path d="M209.891 79.0585C209.366 73.2729 202.633 59.4933 195.375 72.4316C192.22 78.322 189.947 90.9239 206.105 94.2058" stroke="black" stroke-width="5" stroke-linecap="round"/>
<path d="M204.526 76.8496C203.053 78.1119 200.865 81.3938 203.894 84.4232" stroke="black" stroke-width="5" stroke-linecap="round"/>
<path d="M296.043 93.2593C294.275 103.357 290.362 112.505 286.259 118.189C283.694 121.744 279.538 126.23 274.239 130.142" stroke="black" stroke-width="5" stroke-linecap="round"/>
<path d="M207.682 94.2058C207.472 107.039 212.479 126.078 235.453 136.176C238.986 137.73 242.461 138.621 245.837 138.98" stroke="black" stroke-width="5" stroke-linecap="round"/>
<path d="M272.058 151.639C267.009 150.377 262.171 154.479 260.382 156.688C259.436 158.687 258.994 162.621 264.8 162.369C272.058 162.053 274.267 151.639 282.788 168.364C289.604 181.745 290.046 208.021 289.415 219.486" stroke="black" stroke-width="5" stroke-linecap="round" stroke-linejoin="round"/>
<path d="M255.539 148.168C253.892 151.745 252.556 158.455 260.382 156.688" stroke="black" stroke-width="5" stroke-linecap="round" stroke-linejoin="round"/>
<path d="M258.584 135.861C254.166 137.754 247.759 144.571 250.284 149.115C250.599 149.64 251.546 150.629 252.808 150.377C253.361 150.267 254.262 149.304 255.539 148.168C257.907 146.061 261.568 143.356 266.693 144.381" stroke="black" stroke-width="5" stroke-linecap="round" stroke-linejoin="round"/>
<path d="M346.892 244.221C350.048 228.758 346.974 192.474 308.348 157.635L282.787 135.23L266.693 126.71L263.538 126.078L251.547 128.918L250.284 130.181L246.181 137.754C245.55 139.332 248.265 141.163 252.809 139.648" stroke="black" stroke-width="5" stroke-linecap="round" stroke-linejoin="round"/>
<path d="M221.883 127.656C201.371 130.391 148.122 142.149 115.852 189.823C85.4391 234.754 119.836 253.688 145.397 254.635" stroke="black" stroke-width="5" stroke-linecap="round" stroke-linejoin="round"/>
<path d="M1.66113 260.946L143.982 254.003" stroke="black" stroke-width="5" stroke-linecap="round" stroke-linejoin="round"/>
<path d="M182.797 252.426L447.969 240.873" stroke="black" stroke-width="5" stroke-linecap="round"/>
<path d="M159.158 255.119C159.548 256.329 159.261 257.199 157.741 257.329C153.243 257.715 147.901 250.742 145.793 247.208" stroke="black" stroke-width="5" stroke-linecap="round"/>
<path d="M159.146 241.424C161.391 245.011 165.306 250.538 168.738 253.673C168.425 256.083 166.071 259.746 159.158 255.119C158.105 251.854 152.118 246.113 152.118 245.762" stroke="black" stroke-width="5" stroke-linecap="round"/>
<path d="M165.238 238.051C169.532 242.79 177.326 252.944 174.14 255.642C173.576 256.121 172.855 256.167 172.032 255.887C171.051 255.553 169.924 254.756 168.739 253.673C165.306 250.538 161.391 245.011 159.146 241.424" stroke="black" stroke-width="5" stroke-linecap="round"/>
<path d="M129.934 250.402C137.118 241.405 160.084 221.904 173.203 233.713C178.435 238.934 184.956 248.372 181.208 252.227C179.333 253.673 175.276 251.745 172.66 247.889" stroke="black" stroke-width="5" stroke-linecap="round"/>
<path d="M155.527 199.094C151.004 202.671 143.914 211.969 151.741 220.553" stroke="black" stroke-width="5" stroke-linecap="round"/>
</g>
<defs>
<clipPath id="clip0_489_258">
<rect width="450" height="329.453" fill="white"/>
</clipPath>
</defs>
</svg>
