<svg width="38" height="38" viewBox="0 0 38 38" fill="none" xmlns="http://www.w3.org/2000/svg">
<path fill-rule="evenodd" clip-rule="evenodd" d="M19.632 5.469C19.3873 5.40763 19.1314 5.40763 18.8867 5.469L3.52312 9.32285C2.83918 9.49441 2.35938 10.111 2.35938 10.8184C2.35938 11.5257 2.83918 12.1423 3.52312 12.3139L4.66392 12.6V25.463H3.89574C3.04723 25.463 2.35938 26.1531 2.35938 27.0045V31.6291C2.35938 32.4805 3.04723 33.1707 3.89574 33.1707H8.50483C9.35334 33.1707 10.0412 32.4805 10.0412 31.6291V27.0045C10.0412 26.1531 9.35334 25.463 8.50483 25.463H7.73665V13.3708L9.27301 13.7562V20.8157C9.27301 21.3548 9.55371 21.8548 10.0132 22.1341C11.3423 19.9331 10.0148 22.1351 10.0148 22.1351L10.0167 22.1362L10.0216 22.1392L10.0355 22.1475L10.0803 22.1739C10.1174 22.1956 10.1691 22.2254 10.2347 22.2621C10.3659 22.3356 10.5527 22.4369 10.7891 22.5566C11.2612 22.7958 11.9352 23.1107 12.7619 23.4248C14.4041 24.0488 16.708 24.6922 19.2594 24.6922C21.8108 24.6922 24.1147 24.0488 25.7569 23.4248C26.5836 23.1107 27.2575 22.7958 27.7297 22.5566C27.9661 22.4369 28.1529 22.3356 28.284 22.2621C28.3496 22.2254 28.4013 22.1956 28.4385 22.1739L28.4832 22.1475L28.4972 22.1392L28.504 22.1351L28.5055 22.1341C28.965 21.8548 29.2457 21.3548 29.2457 20.8157V13.7562L34.9956 12.3139C35.6796 12.1423 36.1594 11.5257 36.1594 10.8184C36.1594 10.111 35.6796 9.49441 34.9956 9.32285L19.632 5.469ZM28.5055 22.1341C27.7015 20.8027 27.6604 20.7347 28.5055 22.1341V22.1341ZM5.4321 28.5461V30.0876H6.96846V28.5461H5.4321ZM26.173 14.527L19.632 16.1677C19.3873 16.2291 19.1314 16.2291 18.8867 16.1677L12.3457 14.527V19.8901C12.7264 20.0769 13.2379 20.3089 13.85 20.5415C15.2806 21.0851 17.2017 21.6091 19.2594 21.6091C21.317 21.6091 23.2382 21.0851 24.6687 20.5415C25.2809 20.3089 25.7924 20.0769 26.173 19.8901V14.527ZM19.2594 13.0832L10.2303 10.8184L19.2594 8.55349L28.2884 10.8184L19.2594 13.0832Z" fill="black" fill-opacity="0.85"/>
<path fill-rule="evenodd" clip-rule="evenodd" d="M19.632 5.469C19.3873 5.40763 19.1314 5.40763 18.8867 5.469L3.52312 9.32285C2.83918 9.49441 2.35938 10.111 2.35938 10.8184C2.35938 11.5257 2.83918 12.1423 3.52312 12.3139L4.66392 12.6V25.463H3.89574C3.04723 25.463 2.35938 26.1531 2.35938 27.0045V31.6291C2.35938 32.4805 3.04723 33.1707 3.89574 33.1707H8.50483C9.35334 33.1707 10.0412 32.4805 10.0412 31.6291V27.0045C10.0412 26.1531 9.35334 25.463 8.50483 25.463H7.73665V13.3708L9.27301 13.7562V20.8157C9.27301 21.3548 9.55371 21.8548 10.0132 22.1341C11.3423 19.9331 10.0148 22.1351 10.0148 22.1351L10.0167 22.1362L10.0216 22.1392L10.0355 22.1475L10.0803 22.1739C10.1174 22.1956 10.1691 22.2254 10.2347 22.2621C10.3659 22.3356 10.5527 22.4369 10.7891 22.5566C11.2612 22.7958 11.9352 23.1107 12.7619 23.4248C14.4041 24.0488 16.708 24.6922 19.2594 24.6922C21.8108 24.6922 24.1147 24.0488 25.7569 23.4248C26.5836 23.1107 27.2575 22.7958 27.7297 22.5566C27.9661 22.4369 28.1529 22.3356 28.284 22.2621C28.3496 22.2254 28.4013 22.1956 28.4385 22.1739L28.4832 22.1475L28.4972 22.1392L28.504 22.1351L28.5055 22.1341C28.965 21.8548 29.2457 21.3548 29.2457 20.8157V13.7562L34.9956 12.3139C35.6796 12.1423 36.1594 11.5257 36.1594 10.8184C36.1594 10.111 35.6796 9.49441 34.9956 9.32285L19.632 5.469ZM28.5055 22.1341C27.7015 20.8027 27.6604 20.7347 28.5055 22.1341V22.1341ZM5.4321 28.5461V30.0876H6.96846V28.5461H5.4321ZM26.173 14.527L19.632 16.1677C19.3873 16.2291 19.1314 16.2291 18.8867 16.1677L12.3457 14.527V19.8901C12.7264 20.0769 13.2379 20.3089 13.85 20.5415C15.2806 21.0851 17.2017 21.6091 19.2594 21.6091C21.317 21.6091 23.2382 21.0851 24.6687 20.5415C25.2809 20.3089 25.7924 20.0769 26.173 19.8901V14.527ZM19.2594 13.0832L10.2303 10.8184L19.2594 8.55349L28.2884 10.8184L19.2594 13.0832Z" fill="#72B0F9"/>
</svg>
