<svg width="33" height="32" viewBox="0 0 33 32" fill="none" xmlns="http://www.w3.org/2000/svg">
<path fill-rule="evenodd" clip-rule="evenodd" d="M4.40723 4.04474C4.40723 2.58525 5.5864 1.4021 7.04099 1.4021H25.4774C26.932 1.4021 28.1111 2.58526 28.1111 4.04474V27.8285C28.1111 29.288 26.932 30.4711 25.4774 30.4711H7.04099C5.58642 30.4711 4.40723 29.288 4.40723 27.8285V4.04474ZM12.3085 27.8285H25.4774V4.04474H12.3085V27.8285ZM9.67476 4.04474V27.8285H7.04099V4.04474H9.67476ZM14.9423 8.00869C14.9423 7.27895 15.5319 6.68738 16.2592 6.68738H21.5267C22.254 6.68738 22.8436 7.27895 22.8436 8.00869C22.8436 8.73844 22.254 9.33001 21.5267 9.33001H16.2592C15.5319 9.33001 14.9423 8.73844 14.9423 8.00869ZM14.9423 13.294C14.9423 12.5642 15.5319 11.9727 16.2592 11.9727H21.5267C22.254 11.9727 22.8436 12.5642 22.8436 13.294C22.8436 14.0237 22.254 14.6153 21.5267 14.6153H16.2592C15.5319 14.6153 14.9423 14.0237 14.9423 13.294Z" fill="black" fill-opacity="0.85"/>
<path fill-rule="evenodd" clip-rule="evenodd" d="M4.40723 4.04474C4.40723 2.58525 5.5864 1.4021 7.04099 1.4021H25.4774C26.932 1.4021 28.1111 2.58526 28.1111 4.04474V27.8285C28.1111 29.288 26.932 30.4711 25.4774 30.4711H7.04099C5.58642 30.4711 4.40723 29.288 4.40723 27.8285V4.04474ZM12.3085 27.8285H25.4774V4.04474H12.3085V27.8285ZM9.67476 4.04474V27.8285H7.04099V4.04474H9.67476ZM14.9423 8.00869C14.9423 7.27895 15.5319 6.68738 16.2592 6.68738H21.5267C22.254 6.68738 22.8436 7.27895 22.8436 8.00869C22.8436 8.73844 22.254 9.33001 21.5267 9.33001H16.2592C15.5319 9.33001 14.9423 8.73844 14.9423 8.00869ZM14.9423 13.294C14.9423 12.5642 15.5319 11.9727 16.2592 11.9727H21.5267C22.254 11.9727 22.8436 12.5642 22.8436 13.294C22.8436 14.0237 22.254 14.6153 21.5267 14.6153H16.2592C15.5319 14.6153 14.9423 14.0237 14.9423 13.294Z" fill="#CE4242"/>
</svg>
