<svg width="33" height="33" viewBox="0 0 33 33" fill="none" xmlns="http://www.w3.org/2000/svg">
<path fill-rule="evenodd" clip-rule="evenodd" d="M1.77344 4.40506C1.77344 3.67531 2.36303 3.08374 3.09032 3.08374H20.2098C20.9371 3.08374 21.5267 3.67531 21.5267 4.40506V28.1888C21.5267 28.9185 20.9371 29.5101 20.2098 29.5101H3.09032C2.36303 29.5101 1.77344 28.9185 1.77344 28.1888V4.40506ZM9.67474 26.8675H18.8929V5.72638H9.67474V26.8675ZM7.04097 5.72638V26.8675H4.4072V5.72638H7.04097ZM22.8436 4.40506C22.8436 3.67531 23.4332 3.08374 24.1604 3.08374H29.428C30.1553 3.08374 30.7449 3.67531 30.7449 4.40506V25.5462C30.7449 25.8966 30.6061 26.2327 30.3592 26.4805L27.7254 29.1231C27.2111 29.6391 26.3773 29.6391 25.863 29.1231L23.2293 26.4805C22.9823 26.2327 22.8436 25.8966 22.8436 25.5462V4.40506ZM25.4773 5.72638V24.9989L26.7942 26.3202L28.1111 24.9989V5.72638H25.4773Z" fill="black" fill-opacity="0.85"/>
<path fill-rule="evenodd" clip-rule="evenodd" d="M1.77344 4.40506C1.77344 3.67531 2.36303 3.08374 3.09032 3.08374H20.2098C20.9371 3.08374 21.5267 3.67531 21.5267 4.40506V28.1888C21.5267 28.9185 20.9371 29.5101 20.2098 29.5101H3.09032C2.36303 29.5101 1.77344 28.9185 1.77344 28.1888V4.40506ZM9.67474 26.8675H18.8929V5.72638H9.67474V26.8675ZM7.04097 5.72638V26.8675H4.4072V5.72638H7.04097ZM22.8436 4.40506C22.8436 3.67531 23.4332 3.08374 24.1604 3.08374H29.428C30.1553 3.08374 30.7449 3.67531 30.7449 4.40506V25.5462C30.7449 25.8966 30.6061 26.2327 30.3592 26.4805L27.7254 29.1231C27.2111 29.6391 26.3773 29.6391 25.863 29.1231L23.2293 26.4805C22.9823 26.2327 22.8436 25.8966 22.8436 25.5462V4.40506ZM25.4773 5.72638V24.9989L26.7942 26.3202L28.1111 24.9989V5.72638H25.4773Z" fill="#FED03C"/>
</svg>
