<svg width="32" height="32" viewBox="0 0 32 32" fill="none" xmlns="http://www.w3.org/2000/svg">
<path fill-rule="evenodd" clip-rule="evenodd" d="M1 2.31818C1 1.59017 1.59017 1 2.31818 1H28.6818C29.4098 1 30 1.59017 30 2.31818V20.7727C30 21.5007 29.4098 22.0909 28.6818 22.0909H2.31818C1.59017 22.0909 1 21.5007 1 20.7727V2.31818ZM3.63636 3.63636V19.4545H27.3636V3.63636H3.63636ZM13.5598 7.74688C13.9884 7.5175 14.5085 7.54264 14.913 7.8123L18.8676 10.4487C19.2343 10.6931 19.4545 11.1047 19.4545 11.5455C19.4545 11.9862 19.2343 12.3978 18.8676 12.6422L14.913 15.2786C14.5085 15.5483 13.9884 15.5734 13.5598 15.344C13.1312 15.1146 12.8636 14.668 12.8636 14.1818V8.90909C12.8636 8.42295 13.1312 7.97627 13.5598 7.74688ZM15.5 11.3721V11.7188L15.76 11.5455L15.5 11.3721ZM7.59091 26.0455C7.22687 26.0455 6.93182 26.3405 6.93182 26.7045C6.93182 27.0686 7.22687 27.3636 7.59091 27.3636C7.95495 27.3636 8.25 27.0686 8.25 26.7045C8.25 26.3405 7.95495 26.0455 7.59091 26.0455ZM4.56965 25.3864C5.07817 24.2225 6.23954 23.4091 7.59091 23.4091C8.94228 23.4091 10.1036 24.2225 10.6122 25.3864H28.6818C29.4098 25.3864 30 25.9765 30 26.7045C30 27.4326 29.4098 28.0227 28.6818 28.0227H10.6122C10.1036 29.1866 8.94228 30 7.59091 30C6.23954 30 5.07817 29.1866 4.56965 28.0227H2.31818C1.59017 28.0227 1 27.4326 1 26.7045C1 25.9765 1.59017 25.3864 2.31818 25.3864H4.56965Z" fill="black" fill-opacity="0.85"/>
<path fill-rule="evenodd" clip-rule="evenodd" d="M1 2.31818C1 1.59017 1.59017 1 2.31818 1H28.6818C29.4098 1 30 1.59017 30 2.31818V20.7727C30 21.5007 29.4098 22.0909 28.6818 22.0909H2.31818C1.59017 22.0909 1 21.5007 1 20.7727V2.31818ZM3.63636 3.63636V19.4545H27.3636V3.63636H3.63636ZM13.5598 7.74688C13.9884 7.5175 14.5085 7.54264 14.913 7.8123L18.8676 10.4487C19.2343 10.6931 19.4545 11.1047 19.4545 11.5455C19.4545 11.9862 19.2343 12.3978 18.8676 12.6422L14.913 15.2786C14.5085 15.5483 13.9884 15.5734 13.5598 15.344C13.1312 15.1146 12.8636 14.668 12.8636 14.1818V8.90909C12.8636 8.42295 13.1312 7.97627 13.5598 7.74688ZM15.5 11.3721V11.7188L15.76 11.5455L15.5 11.3721ZM7.59091 26.0455C7.22687 26.0455 6.93182 26.3405 6.93182 26.7045C6.93182 27.0686 7.22687 27.3636 7.59091 27.3636C7.95495 27.3636 8.25 27.0686 8.25 26.7045C8.25 26.3405 7.95495 26.0455 7.59091 26.0455ZM4.56965 25.3864C5.07817 24.2225 6.23954 23.4091 7.59091 23.4091C8.94228 23.4091 10.1036 24.2225 10.6122 25.3864H28.6818C29.4098 25.3864 30 25.9765 30 26.7045C30 27.4326 29.4098 28.0227 28.6818 28.0227H10.6122C10.1036 29.1866 8.94228 30 7.59091 30C6.23954 30 5.07817 29.1866 4.56965 28.0227H2.31818C1.59017 28.0227 1 27.4326 1 26.7045C1 25.9765 1.59017 25.3864 2.31818 25.3864H4.56965Z" fill="#FED03C"/>
</svg>
