<svg width="33" height="33" viewBox="0 0 33 33" fill="none" xmlns="http://www.w3.org/2000/svg">
<path fill-rule="evenodd" clip-rule="evenodd" d="M1.77344 5.06583C1.77344 4.33608 2.36303 3.74451 3.09032 3.74451H10.9916C13.1455 3.74451 15.0579 4.78219 16.2592 6.38649C17.4604 4.78219 19.3728 3.74451 21.5267 3.74451H29.428C30.1553 3.74451 30.7449 4.33608 30.7449 5.06583V24.8856C30.7449 25.6154 30.1553 26.2069 29.428 26.2069H20.2098C18.7552 26.2069 17.576 27.3901 17.576 28.8496C17.576 29.5793 16.9864 30.1709 16.2592 30.1709C15.5319 30.1709 14.9423 29.5793 14.9423 28.8496C14.9423 27.3901 13.7631 26.2069 12.3085 26.2069H3.09032C2.36303 26.2069 1.77344 25.6154 1.77344 24.8856V5.06583ZM14.9423 24.2714C14.1675 23.8217 13.2679 23.5643 12.3085 23.5643H4.4072V6.38714H10.9916C13.1735 6.38714 14.9423 8.16185 14.9423 10.3511V24.2714ZM17.576 10.3511V24.2714C18.3508 23.8217 19.2504 23.5643 20.2098 23.5643H28.1111V6.38714H21.5267C19.3448 6.38714 17.576 8.16185 17.576 10.3511Z" fill="#72B0F9"/>
</svg>
