<svg width="25" height="25" viewBox="0 0 25 25" fill="none" xmlns="http://www.w3.org/2000/svg">
<path d="M18.4161 4.30464V2.14783C18.4161 1.96089 18.2012 1.85765 18.0561 1.97205L5.478 11.7963C5.37113 11.8794 5.28465 11.9858 5.22517 12.1074C5.16569 12.229 5.13477 12.3626 5.13477 12.498C5.13477 12.6334 5.16569 12.767 5.22517 12.8886C5.28465 13.0102 5.37113 13.1166 5.478 13.1997L18.0561 23.0239C18.204 23.1383 18.4161 23.0351 18.4161 22.8482V20.6914C18.4161 20.5546 18.3519 20.4235 18.2459 20.3398L8.20121 12.4994L18.2459 4.6562C18.3519 4.57249 18.4161 4.44136 18.4161 4.30464V4.30464Z" fill="#646464" fill-opacity="0.85"/>
</svg>
