<svg width="5742" height="1421" viewBox="0 0 5742 1421" fill="none" xmlns="http://www.w3.org/2000/svg">
<rect y="646.002" width="1005" height="1011" transform="rotate(-40 0 646.002)" fill="#CE4242"/>
<rect x="650" y="0.00158691" width="1005" height="1011" transform="rotate(40 650 0.00158691)" fill="#4A4DC7"/>
<rect x="411" y="63.0016" width="1005" height="1011" transform="rotate(20 411 63.0016)" fill="#FED03C"/>
<rect x="1707" y="226.002" width="12" height="1035" fill="#DFDFDF"/>
<path d="M2370.85 766.328H2173.97V899.629H2405.03V982.002H2071.43V484.345H2404.34V567.402H2173.97V686.005H2370.85V766.328ZM2805.6 567.402H2582.41V982.002H2479.87V484.345H2805.6V567.402ZM2963.15 816.572C2966.12 848.701 2975.57 871.829 2991.52 885.957C3007.47 899.856 3030.6 906.806 3060.91 906.806C3094.4 906.806 3119.24 895.755 3135.42 873.652C3151.6 851.321 3160.94 818.395 3163.45 774.873H3006.22V691.816H3163.11C3160.37 647.382 3150.35 614.456 3133.03 593.037C3115.94 571.39 3091.44 560.566 3059.54 560.566C3028.55 560.566 3005.31 567.972 2989.81 582.783C2974.32 597.366 2965.32 620.95 2962.81 653.535H2860.27C2865.29 599.075 2885.11 556.123 2919.75 524.677C2954.61 493.232 3001.21 477.509 3059.54 477.509C3101.01 477.509 3137.36 487.308 3168.57 506.904C3200.02 526.272 3224.17 554.186 3241.04 590.644C3257.9 626.875 3266.33 669.144 3266.33 717.451V749.922C3266.33 823.294 3247.99 881.513 3211.3 924.58C3174.84 967.418 3124.71 988.838 3060.91 988.838C3002.12 988.838 2954.95 973.343 2919.4 942.353C2884.09 911.136 2864.49 869.209 2860.62 816.572H2963.15ZM3740.39 838.447L3807.38 484.345H3909.58L3799.18 982.002H3695.95L3614.95 649.091L3533.94 982.002H3430.72L3320.32 484.345H3422.52L3489.85 837.763L3571.88 484.345H3658.7L3740.39 838.447ZM4388.08 744.453C4388.08 793.444 4379.42 836.396 4362.1 873.31C4344.78 910.224 4319.95 938.707 4287.59 958.759C4255.46 978.811 4218.55 988.838 4176.85 988.838C4135.6 988.838 4098.8 978.925 4066.45 959.101C4034.09 939.277 4009.03 911.022 3991.25 874.336C3973.48 837.422 3964.48 795.039 3964.25 747.187V722.578C3964.25 673.587 3973.02 630.52 3990.57 593.379C4008.34 556.009 4033.29 527.412 4065.42 507.588C4097.78 487.535 4134.69 477.509 4176.16 477.509C4217.64 477.509 4254.44 487.535 4286.56 507.588C4318.92 527.412 4343.87 556.009 4361.42 593.379C4379.19 630.52 4388.08 673.473 4388.08 722.236V744.453ZM4284.17 721.894C4284.17 669.713 4274.83 630.065 4256.14 602.949C4237.46 575.833 4210.8 562.275 4176.16 562.275C4141.76 562.275 4115.21 575.719 4096.53 602.607C4077.84 629.267 4068.38 668.46 4068.16 720.185V744.453C4068.16 795.267 4077.5 834.687 4096.18 862.714C4114.87 890.742 4141.76 904.755 4176.85 904.755C4211.26 904.755 4237.69 891.311 4256.14 864.423C4274.6 837.308 4283.94 797.887 4284.17 746.162V721.894ZM4660.82 799.824H4579.13V982.002H4476.59V484.345H4661.5C4720.29 484.345 4765.64 497.448 4797.54 523.652C4829.44 549.856 4845.39 586.884 4845.39 634.736C4845.39 668.688 4837.98 697.057 4823.17 719.843C4808.59 742.402 4786.37 760.403 4756.52 773.847L4864.19 977.216V982.002H4754.13L4660.82 799.824ZM4579.13 716.767H4661.84C4687.59 716.767 4707.53 710.273 4721.66 697.285C4735.79 684.069 4742.85 665.953 4742.85 642.939C4742.85 619.469 4736.13 601.012 4722.68 587.568C4709.47 574.124 4689.07 567.402 4661.5 567.402H4579.13V716.767ZM5040.2 899.629H5257.92V982.002H4937.66V484.345H5040.2V899.629ZM5331.05 982.002V484.345H5484.18C5527.93 484.345 5567.01 494.257 5601.42 514.082C5636.05 533.678 5663.05 561.705 5682.42 598.164C5701.79 634.394 5711.47 675.638 5711.47 721.894V744.795C5711.47 791.051 5701.9 832.181 5682.76 868.183C5663.85 904.186 5637.08 932.099 5602.44 951.923C5567.81 971.748 5528.73 981.774 5485.21 982.002H5331.05ZM5433.59 567.402V899.629H5483.15C5523.26 899.629 5553.91 886.526 5575.1 860.322C5596.29 834.117 5607.11 796.634 5607.57 747.871V721.552C5607.57 670.966 5597.09 632.685 5576.12 606.709C5555.16 580.504 5524.51 567.402 5484.18 567.402H5433.59Z" fill="#090909"/>
</svg>
