<svg width="450" height="320" viewBox="0 0 450 320" fill="none" xmlns="http://www.w3.org/2000/svg">
<g clip-path="url(#clip0_489_63)">
<path d="M98.7553 284.844C61.7857 255.202 151.057 240.23 199.31 237.208C199.702 237.183 200.044 237.443 200.154 237.818C214.516 286.693 251.899 306.472 268.97 311.192C228.403 315.234 135.893 314.621 98.7553 284.844Z" fill="black"/>
<path d="M305.773 303.664C359.128 303.664 402.381 260.411 402.381 207.056C402.381 153.701 359.128 110.448 305.773 110.448C252.418 110.448 209.165 153.701 209.165 207.056C209.165 260.411 252.418 303.664 305.773 303.664Z" stroke="black" stroke-width="7"/>
<path d="M305.772 316.21C366.057 316.21 414.927 267.34 414.927 207.056C414.927 146.772 366.057 97.9019 305.772 97.9019C245.488 97.9019 196.618 146.772 196.618 207.056C196.618 267.34 245.488 316.21 305.772 316.21Z" stroke="black" stroke-width="7"/>
<path d="M305.773 130.104C308.544 130.104 310.791 127.857 310.791 125.086C310.791 122.314 308.544 120.067 305.773 120.067C303.001 120.067 300.754 122.314 300.754 125.086C300.754 127.857 303.001 130.104 305.773 130.104Z" fill="black"/>
<path d="M305.773 294.045C308.544 294.045 310.791 291.798 310.791 289.026C310.791 286.255 308.544 284.008 305.773 284.008C303.001 284.008 300.754 286.255 300.754 289.026C300.754 291.798 303.001 294.045 305.773 294.045Z" fill="black"/>
<path d="M387.742 212.075C390.514 212.075 392.761 209.828 392.761 207.056C392.761 204.284 390.514 202.037 387.742 202.037C384.971 202.037 382.724 204.284 382.724 207.056C382.724 209.828 384.971 212.075 387.742 212.075Z" fill="black"/>
<path d="M223.802 212.075C226.573 212.075 228.82 209.828 228.82 207.056C228.82 204.284 226.573 202.037 223.802 202.037C221.03 202.037 218.783 204.284 218.783 207.056C218.783 209.828 221.03 212.075 223.802 212.075Z" fill="black"/>
<path d="M305.772 217.511C311.085 217.511 315.391 213.205 315.391 207.892C315.391 202.58 311.085 198.273 305.772 198.273C300.46 198.273 296.153 202.58 296.153 207.892C296.153 213.205 300.46 217.511 305.772 217.511Z" stroke="black" stroke-width="7"/>
<path d="M263.951 207.893H295.736" stroke="black" stroke-width="7" stroke-linecap="round"/>
<path d="M127.613 128.85C123.849 128.292 115.401 126.675 111.721 124.667" stroke="black" stroke-width="7" stroke-linecap="round"/>
<path d="M215.856 142.233C204.564 143.209 179.136 143.571 157.724 135.541" stroke="black" stroke-width="7" stroke-linecap="round"/>
<path d="M194.527 200.783C165.67 201.48 104.36 200.03 78.2637 190.327" stroke="black" stroke-width="7" stroke-linecap="round"/>
<path d="M122.594 230.476C93.4583 229.5 28.7465 225.458 2.98438 217.093" stroke="black" stroke-width="7" stroke-linecap="round"/>
<path d="M305.772 198.274V143.487" stroke="black" stroke-width="7" stroke-linecap="round"/>
<path d="M409.49 172.763C422.454 173.6 449.22 180.709 446.711 164.399C445.418 155.994 436.472 154.46 431.719 154.743C431.42 154.761 431.136 154.633 430.959 154.39C425.575 146.981 411.859 135.65 397.723 146.827" stroke="black" stroke-width="7" stroke-linecap="round"/>
<path d="M253.495 60.8824C256.841 47.2207 273.151 23.9958 311.627 40.3899L323.755 46.4613" stroke="black" stroke-width="7" stroke-linecap="round"/>
<path d="M311.627 40.3895C319.852 34.8134 340.066 28.847 350.103 49.5904" stroke="black" stroke-width="7" stroke-linecap="round"/>
<path d="M236.349 62.137H267.297" stroke="black" stroke-width="7" stroke-linecap="round"/>
<path d="M135.17 26.8344C134.021 19.6813 127.029 14.1087 118.41 14.1087C116.782 14.1087 115.154 14.3582 113.717 14.6908C109.312 7.95375 100.98 3.37915 91.4035 3.37915C77.2295 3.37915 65.833 13.3601 65.833 25.5868" stroke="black" stroke-width="7" stroke-miterlimit="10" stroke-linecap="round" stroke-linejoin="round"/>
<path d="M135.17 27.0008C132.042 26.474 123.773 26.9176 115.729 32.9062M135.17 26.8345C145.417 27.9157 153.366 35.4846 153.366 44.717C153.366 54.6979 144.076 62.7659 132.584 62.7659L76.1764 62.6826H70.4302C58.938 62.6826 49.6484 54.6148 49.6484 44.6338C49.6484 35.9837 56.6396 28.8307 65.9292 27.0008C70.1429 26.1413 81.1372 24.5389 91.4036 25.0046L135.17 26.8345Z" stroke="black" stroke-width="7" stroke-miterlimit="10" stroke-linecap="round" stroke-linejoin="round"/>
</g>
<defs>
<clipPath id="clip0_489_63">
<rect width="450" height="319.517" fill="white"/>
</clipPath>
</defs>
</svg>
