<svg width="226" height="226" viewBox="0 0 226 226" fill="none" xmlns="http://www.w3.org/2000/svg">
<path d="M112.772 209.664C166.127 209.664 209.38 166.411 209.38 113.056C209.38 59.701 166.127 16.4482 112.772 16.4482C59.4173 16.4482 16.1646 59.701 16.1646 113.056C16.1646 166.411 59.4173 209.664 112.772 209.664Z" stroke="black" stroke-width="7"/>
<path d="M112.772 222.21C173.057 222.21 221.927 173.34 221.927 113.056C221.927 52.7719 173.057 3.90186 112.772 3.90186C52.4882 3.90186 3.61816 52.7719 3.61816 113.056C3.61816 173.34 52.4882 222.21 112.772 222.21Z" stroke="black" stroke-width="7"/>
<path d="M112.773 36.1046C115.544 36.1046 117.791 33.8577 117.791 31.086C117.791 28.3143 115.544 26.0674 112.773 26.0674C110.001 26.0674 107.754 28.3143 107.754 31.086C107.754 33.8577 110.001 36.1046 112.773 36.1046Z" fill="black"/>
<path d="M112.773 200.045C115.544 200.045 117.791 197.798 117.791 195.026C117.791 192.255 115.544 190.008 112.773 190.008C110.001 190.008 107.754 192.255 107.754 195.026C107.754 197.798 110.001 200.045 112.773 200.045Z" fill="black"/>
<path d="M194.743 118.075C197.514 118.075 199.761 115.828 199.761 113.056C199.761 110.284 197.514 108.038 194.743 108.038C191.971 108.038 189.724 110.284 189.724 113.056C189.724 115.828 191.971 118.075 194.743 118.075Z" fill="black"/>
<path d="M30.8023 118.075C33.574 118.075 35.8209 115.828 35.8209 113.056C35.8209 110.284 33.574 108.038 30.8023 108.038C28.0306 108.038 25.7837 110.284 25.7837 113.056C25.7837 115.828 28.0306 118.075 30.8023 118.075Z" fill="black"/>
<path d="M112.772 123.511C118.085 123.511 122.391 119.205 122.391 113.892C122.391 108.58 118.085 104.273 112.772 104.273C107.46 104.273 103.153 108.58 103.153 113.892C103.153 119.205 107.46 123.511 112.772 123.511Z" stroke="black" stroke-width="7"/>
<path d="M70.9507 113.893H102.735" stroke="black" stroke-width="7" stroke-linecap="round"/>
<path d="M112.772 104.274V49.4873" stroke="black" stroke-width="7" stroke-linecap="round"/>
</svg>
